# xmcd
#
# Track frame offsets: 
#        150
#        22117
#        42302
#        64233
#        82453
#        97217
#        111321
#        125201
#        139886
#        152787
#        162856
#        181977
#        198652
#        206958
#        218305
#        234913
#        259953
#        271183
#        284357
#        299197
#        316840
#
# Disc length: 4373 seconds
#
# Revision: 3
# Processed by: cddbd v1.5.2PL0 Copyright (c) Steve Scherf et al.
# Submitted via: ExactAudioCopyFreeDBPlugin 1.0
#
DISCID=58111315
DTITLE=Z.Z. Hill - The Brand New Z.Z. Hill:  Platinum Collection
DYEAR=2002
DGENRE=Blues
TTITLE0=It Ain't No Use (Act I, Scene I )
TTITLE1=Ha Ha (Laughing Song) (Act I, Scene II)
TTITLE2=Second Chance (Act II, Scene I)
TTITLE3=Our Love is Getting Better (Act II, Scene II)
TTITLE4=Faithful and True (Act III, Finale)
TTITLE5=Choking Kind
TTITLE6=Hold Back (One Man at a Time)
TTITLE7=A Man Needs a Woman (A Woman Needs a Man)
TTITLE8=Early in the Morning
TTITLE9=I Think I'd Do It
TTITLE10=Suppertime (Home Just Ain't Home At)
TTITLE11=Just as I Am
TTITLE12=Touch Em' with Love
TTITLE13=Put a Little Love in Your Heart
TTITLE14=Just as I Am (Collectors Version)
TTITLE15=Faithful and True (Collectors Version)
TTITLE16=It's a Hang Up Baby
TTITLE17=Put a Llittle Love in Your Heart (Collectors Version)
TTITLE18=Hold Back (One Man at a Time) (Collectors Version)
TTITLE19=Early in the Morning (Collectors Version)
TTITLE20=I Think I'd Do It (Collectors Version)
EXTD=
EXTT0=
EXTT1=
EXTT2=
EXTT3=
EXTT4=
EXTT5=
EXTT6=
EXTT7=
EXTT8=
EXTT9=
EXTT10=
EXTT11=
EXTT12=
EXTT13=
EXTT14=
EXTT15=
EXTT16=
EXTT17=
EXTT18=
EXTT19=
EXTT20=
PLAYORDER=
